<?xml version="1.0" standalone="no"?>
<!DOCTYPE svg PUBLIC "-//W3C//DTD SVG 1.1//EN" "http://www.w3.org/Graphics/SVG/1.1/DTD/svg11.dtd" >
<svg xmlns="http://www.w3.org/2000/svg" xmlns:xlink="http://www.w3.org/1999/xlink" version="1.1">
<metadata>
Created by FontForge 20170924 at Thu Mar  3 22:52:22 2016
 By www-data
Twitchy.TV FONT

The Twitchy.TV font is a font that replicates the font used for the logo of the website Twitch.

The Twitch logo and the "Glitch" mascot are registered trademarks of Twitch.
2016 - By MaxiGamer / maxigamer.deviantart.com
Made with FontStruct.
</metadata>
<defs>
<font id="Twitchy.TV" horiz-adv-x="3792" >
  <font-face 
    font-family="Twitchy.TV"
    font-weight="400"
    font-stretch="normal"
    units-per-em="4096"
    panose-1="0 0 4 0 0 0 0 0 0 0"
    ascent="4096"
    descent="0"
    x-height="3072"
    cap-height="3925"
    bbox="-3003 -682 4130 8704"
    underline-thickness="204"
    underline-position="103"
    unicode-range="U+0020-0178"
  />
<missing-glyph horiz-adv-x="3075" 
d="M2048 581v651h-652v-651h652zM2699 1343v651h-1303v-651h1303zM2048 2101v651h-652v-651h652zM2699 2863v647h-651q-271 0 -459 -189q-193 -192 -193 -458h1303zM0 0v4096h4096v-4096h-4096z" />
    <glyph glyph-name=".notdef" horiz-adv-x="3075" 
d="M2048 581v651h-652v-651h652zM2699 1343v651h-1303v-651h1303zM2048 2101v651h-652v-651h652zM2699 2863v647h-651q-271 0 -459 -189q-193 -192 -193 -458h1303zM0 0v4096h4096v-4096h-4096z" />
    <glyph glyph-name="glyph1" horiz-adv-x="37" 
 />
    <glyph glyph-name="glyph2" horiz-adv-x="1501" 
 />
    <glyph glyph-name="space" unicode=" " horiz-adv-x="1163" 
 />
    <glyph glyph-name="exclam" unicode="!" horiz-adv-x="1539" 
d="M0 0v512h1126v-512h-1126zM0 1024v3072h1126v-3072h-1126z" />
    <glyph glyph-name="quotedbl" unicode="&#x22;" horiz-adv-x="2290" 
d="M0 3072v853h750v-512l-375 -341h-375zM1126 3072v853h751v-512l-376 -341h-375z" />
    <glyph glyph-name="numbersign" unicode="#" horiz-adv-x="1539" 
d="M0 0v3754h1126v-3754h-1126z" />
    <glyph glyph-name="dollar" unicode="$" horiz-adv-x="3041" 
d="M938 -341v341h-938v853h1126v341h-1126v1195l750 683h188v341h751v-341h939v-854h-1127v-341h1127v-1195l-751 -682h-188v-341h-751z" />
    <glyph glyph-name="percent" unicode="%" horiz-adv-x="3041" 
d="M2252 341v341h-375v-341h375zM1877 0l-376 341v341l376 342h375l376 -342v-341l-376 -341h-375zM750 2389v341h-375v-341h375zM375 2048l-375 341v341l375 342h375l376 -342v-341l-376 -341h-375zM0 0l1689 3072h939l-1690 -3072h-938z" />
    <glyph glyph-name="quotesingle" unicode="'" horiz-adv-x="1163" 
d="M0 3072v853h750v-512l-375 -341h-375z" />
    <glyph glyph-name="parenleft" unicode="(" horiz-adv-x="2665" 
d="M750 0l-750 682v2731l750 683h1502v-1024h-1126v-2048h1126v-1024h-1502z" />
    <glyph glyph-name="parenright" unicode=")" horiz-adv-x="2665" 
d="M0 0v1024h1126v2048h-1126v1024h1501l751 -683v-2731l-751 -682h-1501z" />
    <glyph glyph-name="asterisk" unicode="*" horiz-adv-x="37" 
d="M-1501 6826v1024h-376v-1024h376zM-375 6826v1024h-375v-1024h375zM-2252 5120v682h-751v2902h3378v-2219l-750 -683h-1126l-751 -682v0z" />
    <glyph glyph-name="plus" unicode="+" horiz-adv-x="2665" 
d="M750 682v683h-750v683h750v682h751v-682h751v-683h-751v-683h-751z" />
    <glyph glyph-name="comma" unicode="," horiz-adv-x="1539" 
d="M0 -682v341h375v341h-375v512h1126v-853l-376 -341h-750z" />
    <glyph glyph-name="hyphen" unicode="-" horiz-adv-x="2290" 
d="M0 1365v683h1877v-683h-1877z" />
    <glyph glyph-name="period" unicode="." horiz-adv-x="1539" 
d="M0 0v512h1126v-512h-1126z" />
    <glyph glyph-name="slash" unicode="/" horiz-adv-x="3041" 
d="M0 0l1689 3072h939l-1690 -3072h-938z" />
    <glyph glyph-name="zero" unicode="0" horiz-adv-x="3416" 
d="M1877 853v1365h-751v-1365h751zM0 0v2389l750 683h2253v-3072h-3003z" />
    <glyph glyph-name="one" unicode="1" horiz-adv-x="2290" 
d="M750 0v2218h-563v854h939l751 -683v-2389h-1127z" />
    <glyph glyph-name="two" unicode="2" horiz-adv-x="3041" 
d="M0 0v1877h1501v341h-1501v854h1877l751 -683v-1195h-1502v-341h1502v-853h-2628z" />
    <glyph glyph-name="three" unicode="3" horiz-adv-x="3041" 
d="M0 0v853h1501v341h-1501v683h1501v341h-1501v854h1877l751 -683v-1707l-751 -682h-1877z" />
    <glyph glyph-name="four" unicode="4" 
d="M2252 0v1024h-2252v2048h1126v-1024h1126v1024h376l751 -683v-2389h-1127z" />
    <glyph glyph-name="five" unicode="5" horiz-adv-x="3041" 
d="M0 0v853h1501v341h-1501v1878h2628v-854h-1502v-341h1502v-1195l-751 -682h-1877z" />
    <glyph glyph-name="six" unicode="6" 
d="M2252 853v512h-1126v-512h1126zM0 0v3072h1126v-1024h1502l751 -683v-1365h-3379z" />
    <glyph glyph-name="seven" unicode="7" horiz-adv-x="3041" 
d="M750 0v1024l751 682v512h-1501v854h2628v-1366l-751 -682v-1024h-1127z" />
    <glyph glyph-name="eight" unicode="8" 
d="M2252 682v512h-1126v-512h1126zM2252 1706v512h-1126v-512h1126zM750 0l-750 682v683h375l-375 341v683l750 683h1878l751 -683v-683l-376 -341h376v-683l-751 -682h-1878z" />
    <glyph glyph-name="nine" unicode="9" 
d="M2252 1706v512h-1126v-512h1126zM2252 0v1024h-2252v1365l750 683h2629v-3072h-1127z" />
    <glyph glyph-name="colon" unicode=":" horiz-adv-x="1539" 
d="M0 0v512h1126v-512h-1126zM0 1365v512h1126v-512h-1126z" />
    <glyph glyph-name="semicolon" unicode=";" horiz-adv-x="1539" 
d="M0 -682v341h375v341h-375v512h1126v-853l-376 -341h-750zM0 1365v512h1126v-512h-1126z" />
    <glyph glyph-name="equal" unicode="=" horiz-adv-x="2290" 
d="M0 0v682h1877v-682h-1877zM0 1365v683h1877v-683h-1877z" />
    <glyph glyph-name="question" unicode="?" horiz-adv-x="2665" 
d="M0 0v512h1126v-512h-1126zM0 1024v1024h1126v1024h-1126v1024h1501l751 -683v-1707l-751 -682h-1501z" />
    <glyph glyph-name="at" unicode="@" 
d="M1501 1024v1024h-375v-1024h375zM2628 1024v1024h-376v-1024h376zM750 -682v682h-750v2901h3379v-2219l-751 -682h-1127l-751 -682v0z" />
    <glyph glyph-name="A" unicode="A" 
d="M2252 1536v512h-1126v-512h1126zM0 0v3072h2628l751 -683v-2389h-1127v853h-1126v-853h-1126z" />
    <glyph glyph-name="B" unicode="B" 
d="M2252 682v512h-1126v-512h1126zM2252 1706v512h-1126v-512h1126zM0 0v3072h2628l751 -683v-341l-751 -683h751v-683l-751 -682h-2628z" />
    <glyph glyph-name="C" unicode="C" horiz-adv-x="3041" 
d="M750 0l-750 682v1707l750 683h1690v-1024h-1314v-1024h1314v-1024h-1690z" />
    <glyph glyph-name="D" unicode="D" horiz-adv-x="3416" 
d="M1877 1024v1024h-751v-1024h751zM0 0v3072h2252l751 -683v-1707l-751 -682h-2252z" />
    <glyph glyph-name="E" unicode="E" horiz-adv-x="3041" 
d="M750 0l-750 682v2390h2440v-854h-1314v-341h1314v-683h-1314v-341h1314v-853h-1690z" />
    <glyph glyph-name="F" unicode="F" horiz-adv-x="3041" 
d="M0 0v2389l750 683h1690v-854h-1314v-341h1314v-683h-1314v-1194h-1126z" />
    <glyph glyph-name="G" unicode="G" 
d="M0 0v2389l750 683h2441v-1024h-2065v-1195h1126v683h939v-1536h-3191z" />
    <glyph glyph-name="H" unicode="H" 
d="M0 0v3925h1126v-853h1314l751 -683v-2389h-1126v2048h-939v-2048h-1126z" />
    <glyph glyph-name="I" unicode="I" horiz-adv-x="1539" 
d="M0 0v3072h1126v-3072h-1126zM0 3413v512h1126v-512h-1126z" />
    <glyph glyph-name="J" unicode="J" horiz-adv-x="3041" 
d="M0 0v2048h1126v-1024h375v2048h1127v-2390l-751 -682h-1877zM1501 3413v512h1127v-512h-1127z" />
    <glyph glyph-name="K" unicode="K" horiz-adv-x="3041" 
d="M0 0v3925h1126v-2219l375 342v1024h1127v-1366l-751 -682h751v-1024h-1127v1024h-375v-1024h-1126z" />
    <glyph glyph-name="L" unicode="L" horiz-adv-x="3041" 
d="M0 0v3072h1126v-2048h1314v-1024h-2440z" />
    <glyph glyph-name="M" unicode="M" horiz-adv-x="4543" 
d="M0 0v3072h3379l751 -683v-2389h-1127v2048h-375v-2048h-1127v2048h-375v-2048h-1126z" />
    <glyph glyph-name="N" unicode="N" horiz-adv-x="3041" 
d="M0 0v3072h1877l751 -683v-2389h-1127v2048h-375v-2048h-1126z" />
    <glyph glyph-name="O" unicode="O" 
d="M2252 1024v1024h-1126v-1024h1126zM0 0v3072h2628l751 -683v-2389h-3379z" />
    <glyph glyph-name="P" unicode="P" 
d="M2252 1706v512h-1126v-512h1126zM0 0v3072h2628l751 -683v-1365h-2253v-1024h-1126z" />
    <glyph glyph-name="Q" unicode="Q" horiz-adv-x="4167" 
d="M1877 1024v1024h-751v-1024h751zM0 0v3072h2252l751 -683v-1365h751v-1024h-3754z" />
    <glyph glyph-name="R" unicode="R" 
d="M2252 1706v512h-1126v-512h1126zM0 0v3072h2628l751 -683v-683l-376 -341h376v-1365h-1127v1024h-1126v-1024h-1126z" />
    <glyph glyph-name="S" unicode="S" horiz-adv-x="3041" 
d="M0 0v853h1501v341h-1501v1195l750 683h1878v-854h-1502v-341h1502v-1195l-751 -682h-1877z" />
    <glyph glyph-name="T" unicode="T" horiz-adv-x="2665" 
d="M750 0l-750 682v3243h1126v-853h939v-1024h-939v-1024h939v-1024h-1315z" />
    <glyph glyph-name="U" unicode="U" 
d="M750 0l-750 682v2390h1126v-2048h1126v2048h1127v-2390l-751 -682h-1878z" />
    <glyph glyph-name="V" unicode="V" horiz-adv-x="3041" 
d="M0 0v3072h1126v-2048h375v2048h1127v-2390l-751 -682h-1877z" />
    <glyph glyph-name="W" unicode="W" horiz-adv-x="4543" 
d="M0 0v3072h1126v-2048h375v2048h1127v-2048h375v2048h1127v-2390l-751 -682h-3379z" />
    <glyph glyph-name="X" unicode="X" horiz-adv-x="3041" 
d="M0 0v1365l375 341h-375v1366h1126v-1366l375 342v1024h1127v-1366l-376 -341h376v-1365h-1127v1365l-375 -341v-1024h-1126z" />
    <glyph glyph-name="Y" unicode="Y" 
d="M1126 0v1024h-376l-750 682v1366h1126v-1024h1126v1024h1127v-1366l-751 -682h-376v-1024h-1126z" />
    <glyph glyph-name="Z" unicode="Z" horiz-adv-x="3041" 
d="M750 0l-750 682v1195h1501v341h-1501v854h2628v-1878h-1502v-341h1502v-853h-1878z" />
    <glyph glyph-name="bracketleft" unicode="[" horiz-adv-x="2665" 
d="M0 0v4096h2252v-1024h-1126v-2219h1126v-853h-2252z" />
    <glyph glyph-name="backslash" unicode="\" horiz-adv-x="3041" 
d="M1689 0l-1689 3072h938l1690 -3072h-939z" />
    <glyph glyph-name="bracketright" unicode="]" horiz-adv-x="2665" 
d="M0 0v853h1126v2219h-1126v1024h2252v-4096h-2252z" />
    <glyph glyph-name="asciicircum" unicode="^" horiz-adv-x="2665" 
d="M0 2730v1024l375 342h1502l375 -342v-1024h-751v683h-751v-683h-750z" />
    <glyph glyph-name="underscore" unicode="_" horiz-adv-x="3041" 
d="M0 -682v682h2628v-682h-2628z" />
    <glyph glyph-name="a" unicode="a" 
d="M2252 1536v512h-1126v-512h1126zM0 0v3072h2628l751 -683v-2389h-1127v853h-1126v-853h-1126z" />
    <glyph glyph-name="b" unicode="b" 
d="M2252 682v512h-1126v-512h1126zM2252 1706v512h-1126v-512h1126zM0 0v3072h2628l751 -683v-341l-751 -683h751v-683l-751 -682h-2628z" />
    <glyph glyph-name="c" unicode="c" horiz-adv-x="3041" 
d="M750 0l-750 682v1707l750 683h1690v-1024h-1314v-1024h1314v-1024h-1690z" />
    <glyph glyph-name="d" unicode="d" horiz-adv-x="3416" 
d="M1877 1024v1024h-751v-1024h751zM0 0v3072h2252l751 -683v-1707l-751 -682h-2252z" />
    <glyph glyph-name="e" unicode="e" horiz-adv-x="3041" 
d="M750 0l-750 682v2390h2440v-854h-1314v-341h1314v-683h-1314v-341h1314v-853h-1690z" />
    <glyph glyph-name="f" unicode="f" horiz-adv-x="3041" 
d="M0 0v2389l750 683h1690v-854h-1314v-341h1314v-683h-1314v-1194h-1126z" />
    <glyph glyph-name="g" unicode="g" 
d="M0 0v2389l750 683h2441v-1024h-2065v-1195h1126v683h939v-1536h-3191z" />
    <glyph glyph-name="h" unicode="h" 
d="M0 0v3925h1126v-853h1314l751 -683v-2389h-1126v2048h-939v-2048h-1126z" />
    <glyph glyph-name="i" unicode="i" horiz-adv-x="1539" 
d="M0 0v3072h1126v-3072h-1126zM0 3413v512h1126v-512h-1126z" />
    <glyph glyph-name="j" unicode="j" horiz-adv-x="3041" 
d="M0 0v2048h1126v-1024h375v2048h1127v-2390l-751 -682h-1877zM1501 3413v512h1127v-512h-1127z" />
    <glyph glyph-name="k" unicode="k" horiz-adv-x="3041" 
d="M0 0v3925h1126v-2219l375 342v1024h1127v-1366l-751 -682h751v-1024h-1127v1024h-375v-1024h-1126z" />
    <glyph glyph-name="l" unicode="l" horiz-adv-x="3041" 
d="M0 0v3072h1126v-2048h1314v-1024h-2440z" />
    <glyph glyph-name="m" unicode="m" horiz-adv-x="4543" 
d="M0 0v3072h3379l751 -683v-2389h-1127v2048h-375v-2048h-1127v2048h-375v-2048h-1126z" />
    <glyph glyph-name="n" unicode="n" horiz-adv-x="3041" 
d="M0 0v3072h1877l751 -683v-2389h-1127v2048h-375v-2048h-1126z" />
    <glyph glyph-name="o" unicode="o" 
d="M2252 1024v1024h-1126v-1024h1126zM0 0v3072h2628l751 -683v-2389h-3379z" />
    <glyph glyph-name="p" unicode="p" 
d="M2252 1706v512h-1126v-512h1126zM0 0v3072h2628l751 -683v-1365h-2253v-1024h-1126z" />
    <glyph glyph-name="q" unicode="q" horiz-adv-x="4167" 
d="M1877 1024v1024h-751v-1024h751zM0 0v3072h2252l751 -683v-1365h751v-1024h-3754z" />
    <glyph glyph-name="r" unicode="r" 
d="M2252 1706v512h-1126v-512h1126zM0 0v3072h2628l751 -683v-683l-376 -341h376v-1365h-1127v1024h-1126v-1024h-1126z" />
    <glyph glyph-name="s" unicode="s" horiz-adv-x="3041" 
d="M0 0v853h1501v341h-1501v1195l750 683h1878v-854h-1502v-341h1502v-1195l-751 -682h-1877z" />
    <glyph glyph-name="t" unicode="t" horiz-adv-x="2665" 
d="M750 0l-750 682v3243h1126v-853h939v-1024h-939v-1024h939v-1024h-1315z" />
    <glyph glyph-name="u" unicode="u" 
d="M750 0l-750 682v2390h1126v-2048h1126v2048h1127v-2390l-751 -682h-1878z" />
    <glyph glyph-name="v" unicode="v" horiz-adv-x="3041" 
d="M0 0v3072h1126v-2048h375v2048h1127v-2390l-751 -682h-1877z" />
    <glyph glyph-name="w" unicode="w" horiz-adv-x="4543" 
d="M0 0v3072h1126v-2048h375v2048h1127v-2048h375v2048h1127v-2390l-751 -682h-3379z" />
    <glyph glyph-name="x" unicode="x" horiz-adv-x="3041" 
d="M0 0v1365l375 341h-375v1366h1126v-1366l375 342v1024h1127v-1366l-376 -341h376v-1365h-1127v1365l-375 -341v-1024h-1126z" />
    <glyph glyph-name="y" unicode="y" 
d="M1126 0v1024h-376l-750 682v1366h1126v-1024h1126v1024h1127v-1366l-751 -682h-376v-1024h-1126z" />
    <glyph glyph-name="z" unicode="z" horiz-adv-x="3041" 
d="M750 0l-750 682v1195h1501v341h-1501v854h2628v-1878h-1502v-341h1502v-853h-1878z" />
    <glyph glyph-name="Agrave" unicode="&#xc0;" 
d="M2252 1536v512h-1126v-512h1126zM0 0v3072h2628l751 -683v-2389h-1127v853h-1126v-853h-1126zM1126 3413l-376 341v342h751l376 -342v-341h-751z" />
    <glyph glyph-name="Aacute" unicode="&#xc1;" 
d="M2252 1536v512h-1126v-512h1126zM0 0v3072h2628l751 -683v-2389h-1127v853h-1126v-853h-1126zM1126 3413v341l375 342h751v-342l-375 -341h-751z" />
    <glyph glyph-name="Acircumflex" unicode="&#xc2;" 
d="M2252 1536v512h-1126v-512h1126zM0 0v3072h2628l751 -683v-2389h-1127v853h-1126v-853h-1126zM750 3413v341l376 342h751l375 -342v-341h-375l-376 341l-375 -341h-376z" />
    <glyph glyph-name="Atilde" unicode="&#xc3;" 
d="M2252 1536v512h-1126v-512h1126zM0 0v3072h2628l751 -683v-2389h-1127v853h-1126v-853h-1126z" />
    <glyph glyph-name="Adieresis" unicode="&#xc4;" 
d="M2252 1536v512h-1126v-512h1126zM0 0v3072h2628l751 -683v-2389h-1127v853h-1126v-853h-1126zM375 3413v683h751v-683h-751zM1877 3413v683h751v-683h-751z" />
    <glyph glyph-name="Aring" unicode="&#xc5;" 
d="M2252 1536v512h-1126v-512h1126zM0 0v3072h2628l751 -683v-2389h-1127v853h-1126v-853h-1126zM1877 3754v342h-376v-342h376zM1501 3413l-375 341v342l375 341h376l375 -341v-342l-375 -341h-376z" />
    <glyph glyph-name="Ccedilla" unicode="&#xc7;" horiz-adv-x="3041" 
d="M750 -682v341l376 341h-376l-750 682v1707l750 683h1690v-1024h-1314v-1024h1314v-1024h-563l-751 -682h-376z" />
    <glyph glyph-name="Egrave" unicode="&#xc8;" horiz-adv-x="3041" 
d="M750 0l-750 682v2390h2440v-854h-1314v-341h1314v-683h-1314v-341h1314v-853h-1690zM750 3413l-375 341v342h751l375 -342v-341h-751z" />
    <glyph glyph-name="Eacute" unicode="&#xc9;" horiz-adv-x="3041" 
d="M750 0l-750 682v2390h2440v-854h-1314v-341h1314v-683h-1314v-341h1314v-853h-1690zM750 3413v341l376 342h751v-342l-376 -341h-751z" />
    <glyph glyph-name="Ecircumflex" unicode="&#xca;" horiz-adv-x="3041" 
d="M750 0l-750 682v2390h2440v-854h-1314v-341h1314v-683h-1314v-341h1314v-853h-1690zM375 3413v341l375 342h751l376 -342v-341h-376l-375 341l-376 -341h-375z" />
    <glyph glyph-name="Edieresis" unicode="&#xcb;" horiz-adv-x="3041" 
d="M750 0l-750 682v2390h2440v-854h-1314v-341h1314v-683h-1314v-341h1314v-853h-1690zM375 3413v683h751v-683h-751zM1501 3413v683h751v-683h-751z" />
    <glyph glyph-name="Igrave" unicode="&#xcc;" horiz-adv-x="1539" 
d="M0 0v3072h1126v-3072h-1126zM0 3413v512h1126v-512h-1126z" />
    <glyph glyph-name="Iacute" unicode="&#xcd;" horiz-adv-x="1539" 
d="M0 0v3072h1126v-3072h-1126zM0 3413v512h1126v-512h-1126z" />
    <glyph glyph-name="Icircumflex" unicode="&#xce;" horiz-adv-x="1539" 
d="M0 0v3072h1126v-3072h-1126zM0 3413v512h1126v-512h-1126z" />
    <glyph glyph-name="Idieresis" unicode="&#xcf;" horiz-adv-x="1539" 
d="M0 0v3072h1126v-3072h-1126zM0 3413v512h1126v-512h-1126z" />
    <glyph glyph-name="Ntilde" unicode="&#xd1;" horiz-adv-x="3041" 
d="M0 0v3072h1877l751 -683v-2389h-1127v2048h-375v-2048h-1126z" />
    <glyph glyph-name="Ograve" unicode="&#xd2;" 
d="M2252 1024v1024h-1126v-1024h1126zM0 0v3072h2628l751 -683v-2389h-3379z" />
    <glyph glyph-name="Oacute" unicode="&#xd3;" 
d="M2252 1024v1024h-1126v-1024h1126zM0 0v3072h2628l751 -683v-2389h-3379z" />
    <glyph glyph-name="Ocircumflex" unicode="&#xd4;" 
d="M2252 1024v1024h-1126v-1024h1126zM0 0v3072h2628l751 -683v-2389h-3379z" />
    <glyph glyph-name="Otilde" unicode="&#xd5;" 
d="M2252 1024v1024h-1126v-1024h1126zM0 0v3072h2628l751 -683v-2389h-3379z" />
    <glyph glyph-name="Odieresis" unicode="&#xd6;" 
d="M2252 1024v1024h-1126v-1024h1126zM0 0v3072h2628l751 -683v-2389h-3379zM375 3413v683h751v-683h-751zM1877 3413v683h751v-683h-751z" />
    <glyph glyph-name="Oslash" unicode="&#xd8;" 
d="M2252 1024v1024h-1126v-1024h1126zM0 0v3072h2628l751 -683v-2389h-3379z" />
    <glyph glyph-name="Ugrave" unicode="&#xd9;" 
d="M750 0l-750 682v2390h1126v-2048h1126v2048h1127v-2390l-751 -682h-1878zM1501 3413l-375 341v342h751l375 -342v-341h-751z" />
    <glyph glyph-name="Uacute" unicode="&#xda;" 
d="M750 0l-750 682v2390h1126v-2048h1126v2048h1127v-2390l-751 -682h-1878z" />
    <glyph glyph-name="Ucircumflex" unicode="&#xdb;" 
d="M750 0l-750 682v2390h1126v-2048h1126v2048h1127v-2390l-751 -682h-1878z" />
    <glyph glyph-name="Udieresis" unicode="&#xdc;" 
d="M750 0l-750 682v2390h1126v-2048h1126v2048h1127v-2390l-751 -682h-1878z" />
    <glyph glyph-name="agrave" unicode="&#xe0;" 
d="M2252 1536v512h-1126v-512h1126zM0 0v3072h2628l751 -683v-2389h-1127v853h-1126v-853h-1126zM1126 3413l-376 341v342h751l376 -342v-341h-751z" />
    <glyph glyph-name="aacute" unicode="&#xe1;" 
d="M2252 1536v512h-1126v-512h1126zM0 0v3072h2628l751 -683v-2389h-1127v853h-1126v-853h-1126zM1126 3413v341l375 342h751v-342l-375 -341h-751z" />
    <glyph glyph-name="acircumflex" unicode="&#xe2;" 
d="M2252 1536v512h-1126v-512h1126zM0 0v3072h2628l751 -683v-2389h-1127v853h-1126v-853h-1126zM750 3413v341l376 342h751l375 -342v-341h-375l-376 341l-375 -341h-376z" />
    <glyph glyph-name="atilde" unicode="&#xe3;" 
d="M2252 1536v512h-1126v-512h1126zM0 0v3072h2628l751 -683v-2389h-1127v853h-1126v-853h-1126z" />
    <glyph glyph-name="adieresis" unicode="&#xe4;" 
d="M2252 1536v512h-1126v-512h1126zM0 0v3072h2628l751 -683v-2389h-1127v853h-1126v-853h-1126zM375 3413v683h751v-683h-751zM1877 3413v683h751v-683h-751z" />
    <glyph glyph-name="aring" unicode="&#xe5;" 
d="M2252 1536v512h-1126v-512h1126zM0 0v3072h2628l751 -683v-2389h-1127v853h-1126v-853h-1126zM1877 3754v342h-376v-342h376zM1501 3413l-375 341v342l375 341h376l375 -341v-342l-375 -341h-376z" />
    <glyph glyph-name="ccedilla" unicode="&#xe7;" horiz-adv-x="3041" 
d="M750 -682v341l376 341h-376l-750 682v1707l750 683h1690v-1024h-1314v-1024h1314v-1024h-563l-751 -682h-376z" />
    <glyph glyph-name="egrave" unicode="&#xe8;" horiz-adv-x="3041" 
d="M750 0l-750 682v2390h2440v-854h-1314v-341h1314v-683h-1314v-341h1314v-853h-1690zM750 3413l-375 341v342h751l375 -342v-341h-751z" />
    <glyph glyph-name="eacute" unicode="&#xe9;" horiz-adv-x="3041" 
d="M750 0l-750 682v2390h2440v-854h-1314v-341h1314v-683h-1314v-341h1314v-853h-1690zM750 3413v341l376 342h751v-342l-376 -341h-751z" />
    <glyph glyph-name="ecircumflex" unicode="&#xea;" horiz-adv-x="3041" 
d="M750 0l-750 682v2390h2440v-854h-1314v-341h1314v-683h-1314v-341h1314v-853h-1690zM375 3413v341l375 342h751l376 -342v-341h-376l-375 341l-376 -341h-375z" />
    <glyph glyph-name="edieresis" unicode="&#xeb;" horiz-adv-x="3041" 
d="M750 0l-750 682v2390h2440v-854h-1314v-341h1314v-683h-1314v-341h1314v-853h-1690zM375 3413v683h751v-683h-751zM1501 3413v683h751v-683h-751z" />
    <glyph glyph-name="igrave" unicode="&#xec;" horiz-adv-x="1539" 
d="M0 0v3072h1126v-3072h-1126zM0 3413v512h1126v-512h-1126z" />
    <glyph glyph-name="iacute" unicode="&#xed;" horiz-adv-x="1539" 
d="M0 0v3072h1126v-3072h-1126zM0 3413v512h1126v-512h-1126z" />
    <glyph glyph-name="icircumflex" unicode="&#xee;" horiz-adv-x="1539" 
d="M0 0v3072h1126v-3072h-1126zM0 3413v512h1126v-512h-1126z" />
    <glyph glyph-name="idieresis" unicode="&#xef;" horiz-adv-x="1539" 
d="M0 0v3072h1126v-3072h-1126zM0 3413v512h1126v-512h-1126z" />
    <glyph glyph-name="ntilde" unicode="&#xf1;" horiz-adv-x="3041" 
d="M0 0v3072h1877l751 -683v-2389h-1127v2048h-375v-2048h-1126z" />
    <glyph glyph-name="ograve" unicode="&#xf2;" 
d="M2252 1024v1024h-1126v-1024h1126zM0 0v3072h2628l751 -683v-2389h-3379z" />
    <glyph glyph-name="oacute" unicode="&#xf3;" 
d="M2252 1024v1024h-1126v-1024h1126zM0 0v3072h2628l751 -683v-2389h-3379z" />
    <glyph glyph-name="ocircumflex" unicode="&#xf4;" 
d="M2252 1024v1024h-1126v-1024h1126zM0 0v3072h2628l751 -683v-2389h-3379z" />
    <glyph glyph-name="otilde" unicode="&#xf5;" 
d="M2252 1024v1024h-1126v-1024h1126zM0 0v3072h2628l751 -683v-2389h-3379z" />
    <glyph glyph-name="odieresis" unicode="&#xf6;" 
d="M2252 1024v1024h-1126v-1024h1126zM0 0v3072h2628l751 -683v-2389h-3379zM375 3413v683h751v-683h-751zM1877 3413v683h751v-683h-751z" />
    <glyph glyph-name="oslash" unicode="&#xf8;" 
d="M2252 1024v1024h-1126v-1024h1126zM0 0v3072h2628l751 -683v-2389h-3379z" />
    <glyph glyph-name="ugrave" unicode="&#xf9;" 
d="M750 0l-750 682v2390h1126v-2048h1126v2048h1127v-2390l-751 -682h-1878zM1501 3413l-375 341v342h751l375 -342v-341h-751z" />
    <glyph glyph-name="uacute" unicode="&#xfa;" 
d="M750 0l-750 682v2390h1126v-2048h1126v2048h1127v-2390l-751 -682h-1878z" />
    <glyph glyph-name="ucircumflex" unicode="&#xfb;" 
d="M750 0l-750 682v2390h1126v-2048h1126v2048h1127v-2390l-751 -682h-1878z" />
    <glyph glyph-name="udieresis" unicode="&#xfc;" 
d="M750 0l-750 682v2390h1126v-2048h1126v2048h1127v-2390l-751 -682h-1878z" />
    <glyph glyph-name="ydieresis" unicode="&#xff;" 
d="M1126 0v1024h-376l-750 682v1366h1126v-1024h1126v1024h1127v-1366l-751 -682h-376v-1024h-1126z" />
    <glyph glyph-name="Uring" unicode="&#x16e;" 
d="M750 0l-750 682v2390h1126v-2048h1126v2048h1127v-2390l-751 -682h-1878z" />
    <glyph glyph-name="uring" unicode="&#x16f;" 
d="M750 0l-750 682v2390h1126v-2048h1126v2048h1127v-2390l-751 -682h-1878z" />
    <glyph glyph-name="Ydieresis" unicode="&#x178;" 
d="M1126 0v1024h-376l-750 682v1366h1126v-1024h1126v1024h1127v-1366l-751 -682h-376v-1024h-1126z" />
  </font>
</defs>
</svg>
